<svg width="128" height="128" viewBox="0 0 128 128" fill="none" xmlns="http://www.w3.org/2000/svg">
<rect width="128" height="128" fill="white"/>
<g clip-path="url(#clip0_101_20)">
<path d="M59.76 48.48L45.92 34.64L52 28H76L83.32 36H96C100.4 36 104 39.6 104 44V92C104 92.2 103.96 92.4 103.92 92.64L83.52 72.24C83.84 70.84 84 69.44 84 68C84 56.96 75.04 48 64 48C62.56 48 61.16 48.16 59.76 48.48ZM97.96 109.24L88.68 100H32C27.6 100 24 96.4 24 92V44C24 41.64 25.08 39.52 26.72 38.04L18.72 30.04L24.4 24.4L103.6 103.6L97.96 109.24ZM73.96 85.28L67.96 79.28C66.68 79.68 65.4 80 64 80C57.36 80 52 74.64 52 68C52 66.6 52.32 65.32 52.76 64.08L46.76 58.08C45 60.96 44 64.36 44 68C44 79.04 52.96 88 64 88C67.64 88 71.04 87 73.96 85.28Z" fill="#1E1E1E"/>
</g>
<defs>
<clipPath id="clip0_101_20">
<rect width="96" height="96" fill="white" transform="translate(16 16)"/>
</clipPath>
</defs>
</svg>
