<svg width="24" height="24" viewBox="0 0 24 24" fill="none" xmlns="http://www.w3.org/2000/svg">
<path fill-rule="evenodd" clip-rule="evenodd" d="M8 11.5C8 11.7759 8.22406 12 8.5 12C8.77594 12 9 11.7759 9 11.5C9 11.2241 8.77594 11 8.5 11C8.22406 11 8 11.2241 8 11.5Z" fill="black"/>
<path fill-rule="evenodd" clip-rule="evenodd" d="M16 11.5C16 11.7759 15.7759 12 15.5 12C15.2241 12 15 11.7759 15 11.5C15 11.2241 15.2241 11 15.5 11C15.7759 11 16 11.2241 16 11.5Z" fill="black"/>
<path d="M13 13H11V15H13V13Z" fill="black"/>
<path d="M19 3C20.1046 3 21 3.89543 21 5V19C21 20.1046 20.1046 21 19 21H5C3.89543 21 3 20.1046 3 19V5C3 3.89543 3.89543 3 5 3H19ZM9 18.5C8.72386 18.5 8.5 18.7239 8.5 19C8.5 19.2761 8.72386 19.5 9 19.5C9.27614 19.5 9.5 19.2761 9.5 19C9.5 18.7239 9.27614 18.5 9 18.5ZM12 18.5C11.7239 18.5 11.5 18.7239 11.5 19C11.5 19.2761 11.7239 19.5 12 19.5C12.2761 19.5 12.5 19.2761 12.5 19C12.5 18.7239 12.2761 18.5 12 18.5ZM15 18.5C14.7239 18.5 14.5 18.7239 14.5 19C14.5 19.2761 14.7239 19.5 15 19.5C15.2761 19.5 15.5 19.2761 15.5 19C15.5 18.7239 15.2761 18.5 15 18.5ZM5 17H19V7H5V17Z" fill="black"/>
</svg>
