<svg width="24" height="24" viewBox="0 0 24 24" fill="none" xmlns="http://www.w3.org/2000/svg">
<rect x="11" y="3" width="6" height="5" rx="1" stroke="black" stroke-width="2" stroke-linejoin="round"/>
<rect x="4" y="3" width="16" height="18" rx="1" stroke="black" stroke-width="2" stroke-linejoin="round"/>
<path d="M15 9H13L14 11L15 9Z" fill="black"/>
<mask id="path-4-inside-1_2243_108" fill="white">
<path d="M14.1209 11C14.5395 11 14.9558 11.1226 15.2622 11.4077C16.3262 12.398 17 13.864 17 15.5C17 17.1364 16.3257 18.6023 15.2612 19.5925C14.9548 19.8775 14.5386 20 14.1202 20H9.88071C9.46233 20 9.04621 19.8775 8.73981 19.5927C7.67493 18.6025 7.00005 17.1366 7 15.5C7 13.8638 7.67439 12.3978 8.73877 11.4076C9.04518 11.1225 9.46144 11 9.87995 11H14.1209Z"/>
</mask>
<path d="M17 15.5L19 15.5001V15.5H17ZM7 15.5L5 15.5L5 15.5001L7 15.5ZM8.73981 19.5927L10.1017 18.128L8.73981 19.5927ZM15.2612 19.5925L13.899 18.1281L15.2612 19.5925ZM8.73877 11.4076L7.37648 9.94331L8.73877 11.4076ZM15.2622 11.4077L13.8997 12.8718C14.5544 13.4812 15 14.4156 15 15.5H17H19C19 13.3124 18.0981 11.3149 16.6248 9.94371L15.2622 11.4077ZM17 15.5L15 15.4999C15 16.5844 14.5542 17.5187 13.899 18.1281L15.2612 19.5925L16.6233 21.0569C18.0972 19.686 18.9999 17.6884 19 15.5001L17 15.5ZM14.1202 20V18H9.88071V20V22H14.1202V20ZM8.73981 19.5927L10.1017 18.128C9.44603 17.5183 9.00003 16.5841 9 15.4999L7 15.5L5 15.5001C5.00006 17.6892 5.90382 19.6867 7.37795 21.0574L8.73981 19.5927ZM7 15.5H9C9 14.4159 9.44579 13.4815 10.1011 12.8719L8.73877 11.4076L7.37648 9.94331C5.90298 11.3141 5 13.3116 5 15.5H7ZM9.87995 11V13H14.1209V11V9H9.87995V11ZM9.88071 20V18C9.86285 18 9.87491 17.997 9.91253 18.0098C9.95335 18.0237 10.0256 18.0573 10.1017 18.128L8.73981 19.5927L7.37795 21.0574C8.14623 21.7717 9.09824 22 9.88071 22V20ZM15.2612 19.5925L13.899 18.1281C13.9751 18.0573 14.0475 18.0237 14.0883 18.0098C14.126 17.997 14.138 18 14.1202 18V20V22C14.9027 22 15.855 21.7716 16.6233 21.0569L15.2612 19.5925ZM8.73877 11.4076L10.1011 12.8719C10.025 12.9427 9.95265 12.9763 9.9118 12.9902C9.87415 13.003 9.86209 13 9.87995 13V11V9C9.09726 9 8.14486 9.22846 7.37648 9.94331L8.73877 11.4076ZM15.2622 11.4077L16.6248 9.94371C15.8563 9.22851 14.9037 9 14.1209 9V11V13C14.1388 13 14.1267 13.003 14.089 12.9902C14.0482 12.9763 13.9758 12.9426 13.8997 12.8718L15.2622 11.4077Z" fill="black" mask="url(#path-4-inside-1_2243_108)"/>
</svg>
