<svg width="24" height="24" viewBox="0 0 24 24" fill="none" xmlns="http://www.w3.org/2000/svg">
<path d="M11.7428 8.49625L9.40108 9.52615C9.07472 9.69752 8.79072 9.51777 8.79072 9.51777L6.86403 8.67042C6.79304 8.63929 6.73315 8.58162 6.70006 8.5037C6.63134 8.34169 6.70475 8.15367 6.86403 8.08373L11.3979 6.09278C11.5885 6.01172 11.9155 5.95155 12.0498 6.15947C12.1309 6.31473 12.1147 6.46597 11.8871 6.57066L7.86278 8.34065C7.86199 8.34123 7.75967 8.37644 7.86278 8.4135L8.91408 8.8759L8.91442 8.87602L8.93722 8.88603C8.98648 8.90558 9.10837 8.94265 9.2431 8.89947L12.1528 7.61976C12.8375 7.33164 13.199 7.11703 13.9892 7.15206C14.6803 7.19984 15.8497 7.59194 16.3076 8.11818C16.4421 8.27268 16.5207 8.43637 16.5407 8.60141C16.5636 8.78978 16.5131 8.96808 16.3861 9.12677C16.2898 9.24717 16.1481 9.35198 15.96 9.43467L12.4053 10.9981C12.246 11.068 12.0612 10.9934 11.9925 10.8314C11.8704 10.5396 12.1408 10.3731 12.3001 10.3032L15.4007 8.97244C15.5823 8.8926 15.8687 8.68201 15.7215 8.51284C15.3779 8.11806 14.4661 7.8122 13.9473 7.77635C13.18 7.72334 12.4481 8.18603 11.7428 8.49625Z" fill="#332B24"/>
<path d="M11.5682 18.8174C11.6392 18.8486 11.7109 18.8721 11.7828 18.8877C11.8549 18.9034 11.9273 18.9112 12 18.9112C12.0726 18.9112 12.1451 18.9034 12.2171 18.8877C12.2891 18.8721 12.3607 18.8486 12.4318 18.8174L20.9001 15.0911C20.9464 15.0707 20.9881 15.0448 21.0244 15.0144C21.0613 14.9835 21.0928 14.9478 21.1182 14.9086C21.1429 14.8703 21.1621 14.8272 21.175 14.7805C21.1878 14.7345 21.1945 14.6847 21.1945 14.6323C21.1945 12.81 21.196 10.9916 21.196 9.1692C21.1966 9.16227 21.1958 9.15703 21.1941 9.15331C21.1928 9.15022 21.1906 9.14801 21.1878 9.14644C21.1845 9.14452 21.1801 9.14342 21.1752 9.14301C21.16 9.14173 21.1413 9.14679 21.1275 9.15337C18.3603 10.4187 15.5389 11.6126 12.7495 12.8399C12.6253 12.8946 12.5006 12.9356 12.3757 12.9629C12.2505 12.9904 12.1251 13.0041 12 13.0041C11.8748 13.0041 11.7494 12.9904 11.6242 12.9629C11.4994 12.9356 11.3746 12.8946 11.2504 12.8399C8.24762 11.5187 5.2491 10.1816 2.24078 8.87544C2.14067 8.83046 2.06748 8.7487 2.03003 8.65268C1.99253 8.55654 1.99067 8.44598 2.03326 8.34338L2.0345 8.3403C2.05526 8.29148 2.08422 8.24882 2.11906 8.21338C2.1552 8.17666 2.19774 8.14757 2.24389 8.12731L11.2504 4.16422C11.3746 4.10952 11.4994 4.06849 11.6242 4.04114C11.7494 4.01373 11.8748 4 12 4C12.1251 4 12.2505 4.01373 12.3757 4.04114C12.5006 4.06849 12.6253 4.10952 12.7495 4.16422L19.76 7.2489C19.8187 7.27468 19.877 7.31256 19.9255 7.35847C19.9729 7.4034 20.0109 7.45629 20.0308 7.5135C20.0511 7.57163 20.0527 7.63402 20.0266 7.69686C20.0137 7.72788 19.9941 7.75895 19.9667 7.78951L19.9666 7.78962C19.8687 7.8967 19.7295 7.93569 19.5846 7.93825C19.3653 7.94203 19.1324 7.86196 19.0126 7.80935L12.4318 4.91368C12.3607 4.88238 12.2891 4.85892 12.2171 4.84327C12.1451 4.82767 12.0727 4.81982 12 4.81982C11.8549 4.81982 11.7103 4.85113 11.5682 4.91368L3.5017 8.46309C3.49525 8.46722 3.49016 8.47275 3.4866 8.47915C3.48298 8.4859 3.48094 8.49364 3.48094 8.50207C3.48094 8.51045 3.48292 8.51825 3.48654 8.52483C3.4901 8.53129 3.49525 8.53682 3.5017 8.54095L11.5682 12.0904C11.6392 12.1217 11.7109 12.1452 11.7828 12.1608C11.8548 12.1765 11.9273 12.1843 12 12.1843C12.0727 12.1843 12.1451 12.1765 12.2171 12.1608C12.2891 12.1452 12.3607 12.1217 12.4318 12.0904L21.4383 8.12731C21.54 8.08268 21.6498 8.08419 21.7451 8.12266C21.8405 8.16118 21.9215 8.23677 21.9654 8.3403C21.9764 8.36631 21.9846 8.39291 21.99 8.41956C21.9946 8.44208 21.9973 8.46483 21.9981 8.48753H21.9984C21.9984 10.5372 22 12.583 22 14.6323C22 14.7635 21.9816 14.8909 21.9463 15.0117C21.9105 15.1345 21.8572 15.2505 21.7885 15.3571C21.7202 15.4626 21.6369 15.5578 21.5401 15.6398C21.445 15.7203 21.3371 15.7881 21.2178 15.8406L12.7495 19.5668C12.6253 19.6215 12.5006 19.6626 12.3757 19.6899C12.2505 19.7173 12.1251 19.731 12 19.731C11.8749 19.731 11.7494 19.7173 11.6242 19.6899C11.4994 19.6626 11.3746 19.6215 11.2504 19.5668L2.78224 15.8406C2.66295 15.7881 2.55498 15.7203 2.4599 15.6398C2.36312 15.5578 2.27975 15.4626 2.21154 15.3571C2.14276 15.2505 2.08954 15.1345 2.05373 15.0117C2.01844 14.8909 2 14.7635 2 14.6323V10.4583C2 10.3451 2.04514 10.2426 2.1181 10.1684C2.19095 10.0942 2.29163 10.0483 2.40277 10.0483C2.51391 10.0483 2.61459 10.0942 2.68744 10.1684C2.76041 10.2426 2.80554 10.3451 2.80554 10.4583V14.6323C2.80554 14.6847 2.81222 14.7345 2.825 14.7805C2.8379 14.8272 2.85707 14.8703 2.88179 14.9086C2.90724 14.9478 2.93869 14.9835 2.97557 15.0144C3.01188 15.0448 3.05356 15.0707 3.09994 15.0911L11.5682 18.8174Z" fill="#0077C8"/>
</svg>
