<svg width="128" height="128" viewBox="0 0 128 128" fill="none" xmlns="http://www.w3.org/2000/svg">
<rect width="128" height="128" fill="white"/>
<g clip-path="url(#clip0_101_7)">
<path d="M64 76.8C71.0692 76.8 76.8 71.0692 76.8 64C76.8 56.9308 71.0692 51.2 64 51.2C56.9308 51.2 51.2 56.9308 51.2 64C51.2 71.0692 56.9308 76.8 64 76.8Z" fill="black"/>
<path d="M52 24L44.68 32H32C27.6 32 24 35.6 24 40V88C24 92.4 27.6 96 32 96H96C100.4 96 104 92.4 104 88V40C104 35.6 100.4 32 96 32H83.32L76 24H52ZM64 84C52.96 84 44 75.04 44 64C44 52.96 52.96 44 64 44C75.04 44 84 52.96 84 64C84 75.04 75.04 84 64 84Z" fill="#1E1E1E"/>
</g>
<defs>
<clipPath id="clip0_101_7">
<rect width="96" height="96" fill="white" transform="translate(16 16)"/>
</clipPath>
</defs>
</svg>
