<svg width="128" height="128" viewBox="0 0 128 128" fill="none" xmlns="http://www.w3.org/2000/svg">
<rect width="128" height="128" fill="white"/>
<path d="M90 80.32C86.96 80.32 84.24 81.52 82.16 83.4L53.64 66.8C53.84 65.88 54 64.96 54 64C54 63.04 53.84 62.12 53.64 61.2L81.84 44.76C84 46.76 86.84 48 90 48C96.64 48 102 42.64 102 36C102 29.36 96.64 24 90 24C83.36 24 78 29.36 78 36C78 36.96 78.16 37.88 78.36 38.8L50.16 55.24C48 53.24 45.16 52 42 52C35.36 52 30 57.36 30 64C30 70.64 35.36 76 42 76C45.16 76 48 74.76 50.16 72.76L78.64 89.4C78.44 90.24 78.32 91.12 78.32 92C78.32 98.44 83.56 103.68 90 103.68C96.44 103.68 101.68 98.44 101.68 92C101.68 85.56 96.44 80.32 90 80.32Z" fill="#1E1E1E"/>
</svg>
